<svg width="600" height="160" viewBox="0 0 600 160" xmlns="http://www.w3.org/2000/svg">
  <defs>
    <pattern id="p" x="0" y="0" width="7" height="7" patternUnits="userSpaceOnUse">
      <circle cx="3.5" cy="3.5" r="0.6" fill="#1A1A2A"/>
    </pattern>
  </defs>
  <rect width="600" height="160" fill="#07070F"/>
  <rect x="20" y="20" width="120" height="120" rx="24" fill="#0A0A16"/>
  <rect x="25" y="25" width="110" height="110" rx="20" fill="#10101E"/>
  <rect x="25" y="25" width="110" height="110" rx="20" fill="url(#p)"/>
  <rect x="20" y="20" width="120" height="120" rx="24" fill="none" stroke="#7C3AED" stroke-width="2" opacity="0.2"/>
  <!-- G scaled to fit 120px container: translate(20,20) scale(1.875) -->
  <g transform="translate(20,20) scale(1.875)">
    <rect x="12" y="12" width="40" height="10" fill="#7C3AED"/>
    <rect x="12" y="12" width="10" height="40" fill="#7C3AED"/>
    <rect x="12" y="42" width="40" height="10" fill="#7C3AED"/>
    <rect x="42" y="32" width="10" height="20" fill="#7C3AED"/>
    <rect x="32" y="32" width="20" height="10" fill="#7C3AED"/>
    <rect x="32" y="32" width="10" height="10" fill="#E11D48"/>
    <rect x="30" y="30" width="14" height="14" rx="1" fill="none" stroke="#E11D48" stroke-width="0.8" opacity="0.4"/>
  </g>
  <line x1="162" y1="36" x2="162" y2="124" stroke="#18182A" stroke-width="1.5"/>
  <text x="182" y="118"
    font-family="'Outfit','SF Pro Display',-apple-system,BlinkMacSystemFont,'Segoe UI',system-ui,sans-serif"
    font-size="88" font-weight="700" fill="#EDEEF6" letter-spacing="-4">Gym</text>
  <text x="408" y="118"
    font-family="'Outfit','SF Pro Display',-apple-system,BlinkMacSystemFont,'Segoe UI',system-ui,sans-serif"
    font-size="88" font-weight="700" fill="#7C3AED" letter-spacing="-4">OS</text>
</svg>
